# Blender v2.82 (sub 7) OBJ File: 'arrow.blend'
# www.blender.org
mtllib arrow.mtl
o arrow_Cube
v -1.500000 0.050000 1.000000
v -1.500000 -0.050000 1.000000
v -1.500000 0.050000 -1.000000
v -1.500000 -0.050000 -1.000000
v -1.000000 0.100000 0.000000
v -1.000000 -0.100000 0.000000
v 1.500000 0.050000 -0.000000
v 1.500000 -0.050000 -0.000000
vt 0.625000 0.750000
vt 0.625000 0.500000
vt 0.625000 0.250000
vt 0.375000 0.500000
vt 0.375000 0.750000
vt 0.375000 0.250000
vt 0.625000 0.500000
vt 0.375000 0.500000
vn 0.0200 0.9980 0.0599
vn 0.0200 -0.9980 0.0599
vn -0.8944 0.0000 -0.4472
vn 0.3162 0.0000 0.9487
vn 0.0200 0.9980 -0.0599
vn 0.0200 -0.9980 -0.0599
vn -0.8944 0.0000 0.4472
vn 0.3162 0.0000 -0.9487
usemtl Material
s off
f 5/1/1 1/2/1 7/3/1
f 2/4/2 6/5/2 8/6/2
f 2/4/3 1/2/3 5/1/3 6/5/3
f 8/6/4 7/3/4 1/2/4 2/4/4
f 5/1/5 7/3/5 3/7/5
f 4/8/6 8/6/6 6/5/6
f 4/8/7 6/5/7 5/1/7 3/7/7
f 8/6/8 4/8/8 3/7/8 7/3/8
