# Blender v2.82 (sub 7) OBJ File: 'axis.blend'
# www.blender.org
mtllib axis.mtl
o origin_Cube
v 0.100000 0.100000 -0.100000
v 0.100000 -0.100000 -0.100000
v 0.100000 0.100000 0.100000
v 0.100000 -0.100000 0.100000
v -0.100000 0.100000 -0.100000
v -0.100000 -0.100000 -0.100000
v -0.100000 0.100000 0.100000
v -0.100000 -0.100000 0.100000
v 0.100000 0.100000 -0.100000
v 0.100000 -0.100000 -0.100000
v 0.100000 0.100000 0.100000
v 0.100000 -0.100000 0.100000
v 2.000000 0.100000 -0.100000
v 2.000000 -0.100000 -0.100000
v 2.000000 0.100000 0.100000
v 2.000000 -0.100000 0.100000
v 2.000000 0.100000 -0.100000
v 2.000000 -0.100000 -0.100000
v 2.000000 0.100000 0.100000
v 2.000000 -0.100000 0.100000
vt 0.625000 0.750000
vt 0.375000 1.000000
vt 0.375000 0.750000
vt 0.625000 0.000000
vt 0.375000 0.250000
vt 0.375000 0.000000
vt 0.375000 0.500000
vt 0.125000 0.750000
vt 0.125000 0.500000
vt 0.375000 0.750000
vt 0.625000 0.750000
vt 0.625000 0.500000
vt 0.375000 0.500000
vt 0.625000 0.500000
vt 0.625000 0.500000
vt 0.625000 0.750000
vt 0.625000 0.500000
vt 0.375000 0.500000
vt 0.375000 0.500000
vt 0.375000 0.750000
vt 0.375000 0.750000
vt 0.625000 0.750000
vt 0.625000 1.000000
vt 0.625000 0.250000
vn 0.0000 0.0000 1.0000
vn -1.0000 0.0000 0.0000
vn 0.0000 -1.0000 0.0000
g origin_Cube
usemtl (null)
s off
f 3/1/1 8/2/1 4/3/1
f 7/4/2 6/5/2 8/6/2
f 2/7/3 8/8/3 6/9/3
f 3/1/1 12/10/1 11/11/1
f 2/7/1 9/12/1 10/13/1
f 4/3/1 10/13/1 12/10/1
f 1/14/1 11/11/1 9/12/1
f 13/15/1 19/16/1 17/17/1
f 14/18/1 17/17/1 18/19/1
f 16/20/1 18/19/1 20/21/1
f 15/22/1 20/21/1 19/16/1
f 3/1/1 7/23/1 8/2/1
f 7/4/2 5/24/2 6/5/2
f 2/7/3 4/3/3 8/8/3
f 3/1/1 4/3/1 12/10/1
f 2/7/1 1/14/1 9/12/1
f 4/3/1 2/7/1 10/13/1
f 1/14/1 3/1/1 11/11/1
f 13/15/1 15/22/1 19/16/1
f 14/18/1 13/15/1 17/17/1
f 16/20/1 14/18/1 18/19/1
f 15/22/1 16/20/1 20/21/1
o x-axis_Cube.001
v 0.100000 0.100000 -0.100000
v 0.100000 -0.100000 -0.100000
v 0.100000 0.100000 0.100000
v 0.100000 -0.100000 0.100000
v 2.000000 0.100000 -0.100000
v 2.000000 -0.100000 -0.100000
v 2.000000 0.100000 0.100000
v 2.000000 -0.100000 0.100000
v 2.000000 0.100000 -0.100000
v 2.000000 -0.100000 -0.100000
v 2.000000 0.100000 0.100000
v 2.000000 -0.100000 0.100000
vt 0.375000 0.500000
vt 0.375000 0.750000
vt 0.375000 0.750000
vt 0.625000 0.750000
vt 0.625000 0.750000
vt 0.625000 0.500000
vt 0.625000 0.500000
vt 0.375000 0.500000
vt 0.625000 0.500000
vt 0.375000 0.750000
vt 0.375000 0.500000
vt 0.625000 0.750000
vn 0.0000 -1.0000 0.0000
vn 0.0000 0.0000 1.0000
vn 0.0000 1.0000 0.0000
vn 0.0000 0.0000 -1.0000
vn 1.0000 0.0000 0.0000
g x-axis_Cube.001_red
usemtl red
s off
f 22/25/4 28/26/4 24/27/4
f 24/27/5 27/28/5 23/29/5
f 23/29/6 25/30/6 21/31/6
f 21/31/7 26/32/7 22/25/7
f 29/33/8 32/34/8 30/35/8
f 22/25/4 26/32/4 28/26/4
f 24/27/5 28/26/5 27/28/5
f 23/29/6 27/28/6 25/30/6
f 21/31/7 25/30/7 26/32/7
f 29/33/8 31/36/8 32/34/8
o y-axis_Cube.002
v 0.100000 0.100000 -0.100000
v 0.100000 -0.100000 -0.100000
v -0.100000 0.100000 -0.100000
v -0.100000 -0.100000 -0.100000
v 0.100000 -0.100000 -2.000000
v -0.100000 -0.100000 -2.000000
v 0.100000 0.100000 -2.000000
v -0.100000 0.100000 -2.000000
vt 0.375000 0.500000
vt 0.625000 0.500000
vt 0.625000 0.500000
vt 0.625000 0.250000
vt 0.375000 0.500000
vt 0.375000 0.250000
vt 0.625000 0.250000
vt 0.375000 0.250000
vt 0.125000 0.500000
vt 0.875000 0.500000
vt 0.875000 0.500000
vt 0.125000 0.500000
vn 1.0000 0.0000 0.0000
vn 0.0000 0.0000 -1.0000
vn -1.0000 0.0000 0.0000
vn 0.0000 -1.0000 0.0000
vn 0.0000 1.0000 0.0000
g y-axis_Cube.002_green
usemtl green
s off
f 34/37/9 39/38/9 33/39/9
f 40/40/10 37/41/10 38/42/10
f 35/43/11 38/42/11 36/44/11
f 36/45/12 37/41/12 34/37/12
f 33/39/13 40/46/13 35/47/13
f 34/37/9 37/41/9 39/38/9
f 40/40/10 39/38/10 37/41/10
f 35/43/11 40/40/11 38/42/11
f 36/45/12 38/48/12 37/41/12
f 33/39/13 39/38/13 40/46/13
o z-axis_Cube.003
v 0.100000 0.100000 -0.100000
v 0.100000 0.100000 0.100000
v -0.100000 0.100000 -0.100000
v -0.100000 0.100000 0.100000
v 0.100000 2.000000 -0.100000
v 0.100000 2.000000 0.100000
v -0.100000 2.000000 -0.100000
v -0.100000 2.000000 0.100000
vt 0.625000 0.750000
vt 0.625000 1.000000
vt 0.625000 1.000000
vt 0.875000 0.500000
vt 0.625000 0.750000
vt 0.625000 0.500000
vt 0.625000 0.000000
vt 0.625000 0.250000
vt 0.625000 0.250000
vt 0.625000 0.500000
vt 0.875000 0.500000
vt 0.875000 0.750000
vt 0.625000 0.000000
vn 0.0000 0.0000 1.0000
vn 0.0000 1.0000 0.0000
vn -1.0000 0.0000 0.0000
vn 1.0000 0.0000 0.0000
vn 0.0000 0.0000 -1.0000
g z-axis_Cube.003_blue
usemtl blue
s off
f 42/49/14 48/50/14 44/51/14
f 47/52/15 46/53/15 45/54/15
f 44/55/16 47/56/16 43/57/16
f 41/58/17 46/53/17 42/49/17
f 43/59/18 45/54/18 41/58/18
f 42/49/14 46/53/14 48/50/14
f 47/52/15 48/60/15 46/53/15
f 44/55/16 48/61/16 47/56/16
f 41/58/17 45/54/17 46/53/17
f 43/59/18 47/52/18 45/54/18
