{
    "asset" : {
        "generator" : "Khronos glTF Blender I/O v1.1.46",
        "version" : "2.0"
    },
    "scene" : 0,
    "scenes" : [
        {
            "name" : "Scene",
            "nodes" : [
                0,
                1,
                2,
                3,
                4
            ]
        }
    ],
    "nodes" : [
        {
            "mesh" : 0,
            "name" : "branch0"
        },
        {
            "mesh" : 1,
            "name" : "leaf0",
            "scale" : [
                0.6287025809288025,
                0.6287025809288025,
                0.6287025809288025
            ],
            "translation" : [
                -2.371335983276367,
                3.0564169883728027,
                0.5039701461791992
            ]
        },
        {
            "mesh" : 2,
            "name" : "leaf1",
            "rotation" : [
                -0.09673657268285751,
                -0.7704503536224365,
                -0.16076964139938354,
                0.609263002872467
            ],
            "scale" : [
                1.1808457374572754,
                1.180845856666565,
                1.180845856666565
            ],
            "translation" : [
                -1.9416005611419678,
                5.211053371429443,
                -0.37936651706695557
            ]
        },
        {
            "mesh" : 3,
            "name" : "leaf2",
            "rotation" : [
                0.07211830466985703,
                -0.26055261492729187,
                -0.727738618850708,
                0.630323588848114
            ],
            "scale" : [
                0.8083116412162781,
                0.8083115220069885,
                0.8083115220069885
            ],
            "translation" : [
                0.9518000483512878,
                4.535178184509277,
                0.8110635280609131
            ]
        },
        {
            "mesh" : 4,
            "name" : "leaf3",
            "rotation" : [
                -0.5484717488288879,
                -0.09307224303483963,
                -0.23551370203495026,
                0.7968999743461609
            ],
            "scale" : [
                0.7689929008483887,
                0.7689927220344543,
                0.7689927220344543
            ],
            "translation" : [
                2.3563780784606934,
                3.300593852996826,
                -0.6214480400085449
            ]
        }
    ],
    "materials" : [
        {
            "doubleSided" : true,
            "emissiveFactor" : [
                0,
                0,
                0
            ],
            "name" : "Material.002",
            "pbrMetallicRoughness" : {
                "baseColorFactor" : [
                    0.17064212262630463,
                    0.07765454798936844,
                    0.029958564788103104,
                    1
                ],
                "metallicFactor" : 0,
                "roughnessFactor" : 0.5
            }
        },
        {
            "doubleSided" : true,
            "emissiveFactor" : [
                0,
                0,
                0
            ],
            "name" : "Material.003",
            "pbrMetallicRoughness" : {
                "baseColorFactor" : [
                    0.036731522530317307,
                    0.14980866014957428,
                    0.08800961822271347,
                    1
                ],
                "metallicFactor" : 0,
                "roughnessFactor" : 0.5
            }
        }
    ],
    "meshes" : [
        {
            "name" : "Cube.001",
            "primitives" : [
                {
                    "attributes" : {
                        "POSITION" : 0,
                        "NORMAL" : 1
                    },
                    "indices" : 2,
                    "material" : 0
                }
            ]
        },
        {
            "name" : "Icosphere",
            "primitives" : [
                {
                    "attributes" : {
                        "POSITION" : 3,
                        "NORMAL" : 4
                    },
                    "indices" : 5,
                    "material" : 1
                }
            ]
        },
        {
            "name" : "Icosphere.001",
            "primitives" : [
                {
                    "attributes" : {
                        "POSITION" : 6,
                        "NORMAL" : 7
                    },
                    "indices" : 5,
                    "material" : 1
                }
            ]
        },
        {
            "name" : "Icosphere.002",
            "primitives" : [
                {
                    "attributes" : {
                        "POSITION" : 8,
                        "NORMAL" : 9
                    },
                    "indices" : 5,
                    "material" : 1
                }
            ]
        },
        {
            "name" : "Icosphere.003",
            "primitives" : [
                {
                    "attributes" : {
                        "POSITION" : 10,
                        "NORMAL" : 11
                    },
                    "indices" : 5,
                    "material" : 1
                }
            ]
        }
    ],
    "accessors" : [
        {
            "bufferView" : 0,
            "componentType" : 5126,
            "count" : 264,
            "max" : [
                2.176654815673828,
                4.537363529205322,
                0.5649706125259399
            ],
            "min" : [
                -2.3846871852874756,
                -0.11204308271408081,
                -0.6734179854393005
            ],
            "type" : "VEC3"
        },
        {
            "bufferView" : 1,
            "componentType" : 5126,
            "count" : 264,
            "type" : "VEC3"
        },
        {
            "bufferView" : 2,
            "componentType" : 5123,
            "count" : 264,
            "type" : "SCALAR"
        },
        {
            "bufferView" : 3,
            "componentType" : 5126,
            "count" : 60,
            "max" : [
                0.8944249749183655,
                1,
                0.8506399989128113
            ],
            "min" : [
                -0.8944249749183655,
                -1,
                -0.8506399989128113
            ],
            "type" : "VEC3"
        },
        {
            "bufferView" : 4,
            "componentType" : 5126,
            "count" : 60,
            "type" : "VEC3"
        },
        {
            "bufferView" : 5,
            "componentType" : 5123,
            "count" : 60,
            "type" : "SCALAR"
        },
        {
            "bufferView" : 6,
            "componentType" : 5126,
            "count" : 60,
            "max" : [
                1.3838938474655151,
                1.038862705230713,
                1.1731375455856323
            ],
            "min" : [
                -1.088958501815796,
                -1,
                -0.8614168167114258
            ],
            "type" : "VEC3"
        },
        {
            "bufferView" : 7,
            "componentType" : 5126,
            "count" : 60,
            "type" : "VEC3"
        },
        {
            "bufferView" : 8,
            "componentType" : 5126,
            "count" : 60,
            "max" : [
                1.0175117254257202,
                1.336463212966919,
                1.4843451976776123
            ],
            "min" : [
                -1.060437798500061,
                -1.1833696365356445,
                -0.8400387167930603
            ],
            "type" : "VEC3"
        },
        {
            "bufferView" : 9,
            "componentType" : 5126,
            "count" : 60,
            "type" : "VEC3"
        },
        {
            "bufferView" : 10,
            "componentType" : 5126,
            "count" : 60,
            "max" : [
                0.8944249749183655,
                1,
                0.8506399989128113
            ],
            "min" : [
                -0.8944249749183655,
                -1,
                -0.8506399989128113
            ],
            "type" : "VEC3"
        },
        {
            "bufferView" : 11,
            "componentType" : 5126,
            "count" : 60,
            "type" : "VEC3"
        }
    ],
    "bufferViews" : [
        {
            "buffer" : 0,
            "byteLength" : 3168,
            "byteOffset" : 0
        },
        {
            "buffer" : 0,
            "byteLength" : 3168,
            "byteOffset" : 3168
        },
        {
            "buffer" : 0,
            "byteLength" : 528,
            "byteOffset" : 6336
        },
        {
            "buffer" : 0,
            "byteLength" : 720,
            "byteOffset" : 6864
        },
        {
            "buffer" : 0,
            "byteLength" : 720,
            "byteOffset" : 7584
        },
        {
            "buffer" : 0,
            "byteLength" : 120,
            "byteOffset" : 8304
        },
        {
            "buffer" : 0,
            "byteLength" : 720,
            "byteOffset" : 8424
        },
        {
            "buffer" : 0,
            "byteLength" : 720,
            "byteOffset" : 9144
        },
        {
            "buffer" : 0,
            "byteLength" : 720,
            "byteOffset" : 9864
        },
        {
            "buffer" : 0,
            "byteLength" : 720,
            "byteOffset" : 10584
        },
        {
            "buffer" : 0,
            "byteLength" : 720,
            "byteOffset" : 11304
        },
        {
            "buffer" : 0,
            "byteLength" : 720,
            "byteOffset" : 12024
        }
    ],
    "buffers" : [
        {
            "byteLength" : 12744,
            "uri" : "data:application/octet-stream;base64,"
        }
    ]
}
